<svg width="766" height="118" viewBox="0 0 766 118" fill="none" xmlns="http://www.w3.org/2000/svg">
<path d="M176.232 66.08L173.256 74H147.432V72.848C149.128 72.816 150.248 72.64 150.792 72.32C151.592 71.808 151.992 70.72 151.992 69.056V46.88C151.992 45.632 151.512 44.816 150.552 44.432C149.976 44.208 148.936 44.096 147.432 44.096V42.848H172.68L175.656 50.336L174.408 50.72C172.104 48.064 170.2 46.32 168.696 45.488C166.904 44.528 164.424 44.048 161.256 44.048C159.656 44.048 158.536 44.16 157.896 44.384C156.776 44.8 156.216 45.664 156.216 46.976V57.392H159.288C161.976 57.392 163.896 56.848 165.048 55.76C165.816 54.992 166.344 53.728 166.632 51.968H167.928V64.016H166.632C166.312 60.4 163.864 58.592 159.288 58.592H156.216V70.256C156.216 71.952 157.656 72.8 160.536 72.8C163.864 72.8 166.312 72.448 167.88 71.744C169.896 70.88 172.296 68.864 175.08 65.696L176.232 66.08ZM221.976 74H209.064V72.8C210.568 72.768 211.608 72.608 212.184 72.32C213.08 71.872 213.528 70.976 213.528 69.632V44.048H213.432L201.672 74.288H200.424L188.616 43.952H188.52V68.528C188.52 70.288 189.064 71.504 190.152 72.176C190.728 72.528 191.656 72.736 192.936 72.8V74H182.568V72.8C185.384 72.672 186.792 71.296 186.792 68.672V47.264C186.792 45.856 186.36 44.928 185.496 44.48C184.984 44.224 184.008 44.08 182.568 44.048V42.848H192.408L202.248 68.192H202.344L212.184 42.848H221.976V44.048C220.568 44.08 219.576 44.224 219 44.48C218.168 44.896 217.752 45.696 217.752 46.88V69.824C217.752 71.072 218.248 71.92 219.24 72.368C219.816 72.624 220.728 72.768 221.976 72.8V74ZM241.704 74H228.36V72.8H229.704C231.848 72.8 232.92 71.712 232.92 69.536V46.832C232.92 45.584 232.408 44.768 231.384 44.384C230.776 44.16 229.768 44.048 228.36 44.048V42.848H241.704V44.048C240.04 44.08 238.904 44.272 238.296 44.624C237.528 45.072 237.144 46 237.144 47.408V69.968C237.144 71.216 237.64 72.048 238.632 72.464C239.208 72.688 240.232 72.8 241.704 72.8V74ZM274.994 66.08L272.018 74H248.258V72.848C249.762 72.848 250.818 72.704 251.426 72.416C252.386 72 252.866 71.104 252.866 69.728V46.88C252.866 44.992 251.73 44.048 249.458 44.048H248.258V42.848H261.842V44.048C260.082 44.08 258.898 44.256 258.29 44.576C257.49 45.024 257.09 45.936 257.09 47.312V69.92C257.09 71.008 257.41 71.76 258.05 72.176C258.69 72.592 259.682 72.8 261.026 72.8C263.938 72.8 266.434 72.112 268.514 70.736C270.018 69.776 271.746 68.096 273.698 65.696L274.994 66.08ZM294.733 74H281.389V72.8H282.733C284.877 72.8 285.949 71.712 285.949 69.536V46.832C285.949 45.584 285.437 44.768 284.413 44.384C283.805 44.16 282.797 44.048 281.389 44.048V42.848H294.733V44.048C293.069 44.08 291.933 44.272 291.325 44.624C290.557 45.072 290.173 46 290.173 47.408V69.968C290.173 71.216 290.669 72.048 291.661 72.464C292.237 72.688 293.261 72.8 294.733 72.8V74ZM330.038 66.08L327.062 74H301.238V72.848C302.934 72.816 304.054 72.64 304.598 72.32C305.398 71.808 305.798 70.72 305.798 69.056V46.88C305.798 45.632 305.318 44.816 304.358 44.432C303.782 44.208 302.742 44.096 301.238 44.096V42.848H326.486L329.462 50.336L328.214 50.72C325.91 48.064 324.006 46.32 322.502 45.488C320.71 44.528 318.23 44.048 315.062 44.048C313.462 44.048 312.342 44.16 311.702 44.384C310.582 44.8 310.022 45.664 310.022 46.976V57.392H313.094C315.782 57.392 317.702 56.848 318.854 55.76C319.622 54.992 320.15 53.728 320.438 51.968H321.734V64.016H320.438C320.118 60.4 317.67 58.592 313.094 58.592H310.022V70.256C310.022 71.952 311.462 72.8 314.342 72.8C317.67 72.8 320.118 72.448 321.686 71.744C323.702 70.88 326.102 68.864 328.886 65.696L330.038 66.08ZM384.518 50.384L383.318 50.816C381.014 48.16 379.126 46.4 377.654 45.536C375.894 44.544 373.558 44.048 370.646 44.048C369.078 44.048 367.99 44.208 367.382 44.528C366.55 44.944 366.134 45.776 366.134 47.024V57.392H368.726C371.478 57.392 373.43 56.704 374.582 55.328C375.19 54.592 375.606 53.488 375.83 52.016H377.126V64.112H375.83C375.318 60.464 372.95 58.64 368.726 58.64H366.134V69.488C366.134 70.864 366.534 71.776 367.334 72.224C367.91 72.544 369.03 72.736 370.694 72.8V74H357.782V72.8C360.534 72.8 361.91 71.92 361.91 70.16V47.12C361.91 45.872 361.478 45.024 360.614 44.576C360.07 44.288 359.126 44.112 357.782 44.048V42.848H381.446L384.518 50.384ZM404.353 74H391.009V72.8H392.353C394.497 72.8 395.569 71.712 395.569 69.536V46.832C395.569 45.584 395.057 44.768 394.033 44.384C393.425 44.16 392.417 44.048 391.009 44.048V42.848H404.353V44.048C402.689 44.08 401.553 44.272 400.945 44.624C400.177 45.072 399.793 46 399.793 47.408V69.968C399.793 71.216 400.289 72.048 401.281 72.464C401.857 72.688 402.881 72.8 404.353 72.8V74ZM434.714 65.312C434.714 68.032 433.722 70.304 431.738 72.128C429.786 73.952 427.37 74.864 424.49 74.864C423.178 74.864 421.69 74.528 420.026 73.856C419.066 73.472 418.282 73.28 417.674 73.28C417.098 73.28 415.93 73.712 414.17 74.576L410.858 66.608L412.058 66.08C416.73 70.944 420.938 73.376 424.682 73.376C426.538 73.376 428.154 72.752 429.53 71.504C430.906 70.288 431.594 68.784 431.594 66.992C431.594 64.848 430.634 63.2 428.714 62.048C427.594 61.344 425.722 60.672 423.098 60.032C419.418 59.136 416.842 58.208 415.37 57.248C413.002 55.712 411.818 53.456 411.818 50.48C411.818 47.856 412.874 45.712 414.986 44.048C416.778 42.672 418.698 41.984 420.746 41.984C421.482 41.984 422.554 42.128 423.962 42.416C425.37 42.704 426.41 42.848 427.082 42.848C428.01 42.848 428.954 42.656 429.914 42.272L433.034 49.808L431.834 50.288C428.538 45.68 424.938 43.376 421.034 43.376C419.178 43.376 417.642 43.936 416.426 45.056C415.242 46.144 414.65 47.456 414.65 48.992C414.65 50.912 415.546 52.416 417.338 53.504C418.554 54.24 420.698 54.976 423.77 55.712C426.81 56.416 429.082 57.232 430.586 58.16C433.338 59.856 434.714 62.24 434.714 65.312ZM467.809 65.696C464.801 71.808 460.609 74.864 455.233 74.864C451.297 74.864 448.049 73.408 445.489 70.496C442.929 67.616 441.649 63.968 441.649 59.552C441.649 54.88 442.881 50.848 445.345 47.456C448.001 43.808 451.425 41.984 455.617 41.984C456.321 41.984 457.089 42.08 457.921 42.272C459.969 42.752 461.105 42.992 461.329 42.992C461.905 42.992 462.785 42.72 463.969 42.176L467.089 50L465.841 50.432C464.113 48.384 462.657 46.88 461.473 45.92C459.329 44.224 457.201 43.376 455.089 43.376C452.145 43.376 449.857 44.816 448.225 47.696C446.817 50.16 446.113 53.136 446.113 56.624C446.113 60.624 446.913 64 448.513 66.752C450.465 70.144 453.313 71.84 457.057 71.84C459.457 71.84 461.553 71.056 463.345 69.488C464.401 68.56 465.521 67.12 466.705 65.168L467.809 65.696ZM505.693 74H492.877V72.8C494.189 72.8 495.133 72.672 495.709 72.416C496.733 72 497.245 71.168 497.245 69.92V58.784H482.317V70.208C482.317 71.264 482.797 71.984 483.757 72.368C484.301 72.592 485.229 72.736 486.541 72.8V74H473.869V72.8C476.685 72.8 478.093 71.84 478.093 69.92V46.976C478.093 45.024 477.037 44.048 474.925 44.048H473.869V42.848H486.541V44.048C485.197 44.08 484.237 44.24 483.661 44.528C482.765 44.976 482.317 45.792 482.317 46.976V57.248H497.245V47.12C497.245 45.776 496.765 44.88 495.805 44.432C495.229 44.176 494.253 44.048 492.877 44.048V42.848H505.693V44.048C504.381 44.08 503.421 44.24 502.813 44.528C501.917 44.976 501.469 45.792 501.469 46.976V69.92C501.469 71.136 501.933 71.952 502.861 72.368C503.405 72.624 504.349 72.768 505.693 72.8V74ZM540.53 66.08L537.554 74H511.73V72.848C513.426 72.816 514.546 72.64 515.09 72.32C515.89 71.808 516.29 70.72 516.29 69.056V46.88C516.29 45.632 515.81 44.816 514.85 44.432C514.274 44.208 513.234 44.096 511.73 44.096V42.848H536.978L539.954 50.336L538.706 50.72C536.402 48.064 534.498 46.32 532.994 45.488C531.202 44.528 528.722 44.048 525.554 44.048C523.954 44.048 522.834 44.16 522.194 44.384C521.074 44.8 520.514 45.664 520.514 46.976V57.392H523.586C526.274 57.392 528.194 56.848 529.346 55.76C530.114 54.992 530.642 53.728 530.93 51.968H532.226V64.016H530.93C530.61 60.4 528.162 58.592 523.586 58.592H520.514V70.256C520.514 71.952 521.954 72.8 524.834 72.8C528.162 72.8 530.61 72.448 532.178 71.744C534.194 70.88 536.594 68.864 539.378 65.696L540.53 66.08ZM576.29 74H568.178L558.962 58.736H555.458V70.112C555.458 71.264 555.97 72.032 556.994 72.416C557.506 72.64 558.402 72.768 559.682 72.8V74H547.058V72.8C549.842 72.704 551.234 71.728 551.234 69.872V47.264C551.234 45.856 550.802 44.928 549.938 44.48C549.426 44.224 548.466 44.08 547.058 44.048V42.848H561.554C564.242 42.848 566.578 43.328 568.562 44.288C571.442 45.632 572.882 47.792 572.882 50.768C572.882 54.896 569.778 57.472 563.57 58.496L570.434 69.872C571.17 71.088 572.066 71.904 573.122 72.32C573.794 72.576 574.85 72.736 576.29 72.8V74ZM567.89 50.528C567.89 46.208 565.186 44.048 559.778 44.048C558.402 44.048 557.41 44.192 556.802 44.48C555.906 44.896 555.458 45.712 555.458 46.928V57.536H558.002C561.426 57.536 563.874 57.056 565.346 56.096C567.042 55.04 567.89 53.184 567.89 50.528Z" fill="black"/>
<path d="M44.232 66.08L41.256 74H15.432V72.848C17.128 72.816 18.248 72.64 18.792 72.32C19.592 71.808 19.992 70.72 19.992 69.056V46.88C19.992 45.632 19.512 44.816 18.552 44.432C17.976 44.208 16.936 44.096 15.432 44.096V42.848H40.68L43.656 50.336L42.408 50.72C40.104 48.064 38.2 46.32 36.696 45.488C34.904 44.528 32.424 44.048 29.256 44.048C27.656 44.048 26.536 44.16 25.896 44.384C24.776 44.8 24.216 45.664 24.216 46.976V57.392H27.288C29.976 57.392 31.896 56.848 33.048 55.76C33.816 54.992 34.344 53.728 34.632 51.968H35.928V64.016H34.632C34.312 60.4 31.864 58.592 27.288 58.592H24.216V70.256C24.216 71.952 25.656 72.8 28.536 72.8C31.864 72.8 34.312 72.448 35.88 71.744C37.896 70.88 40.296 68.864 43.08 65.696L44.232 66.08ZM57.96 72.272C57.96 72.944 57.688 73.52 57.144 74C56.632 74.448 55.992 74.672 55.224 74.672C54.488 74.672 53.864 74.432 53.352 73.952C52.84 73.504 52.584 72.944 52.584 72.272C52.584 71.6 52.84 71.024 53.352 70.544C53.864 70.096 54.488 69.872 55.224 69.872C55.992 69.872 56.648 70.112 57.192 70.592C57.704 71.072 57.96 71.632 57.96 72.272ZM92.6644 50.384L91.4644 50.816C89.1604 48.16 87.2724 46.4 85.8004 45.536C84.0404 44.544 81.7044 44.048 78.7924 44.048C77.2244 44.048 76.1364 44.208 75.5284 44.528C74.6964 44.944 74.2804 45.776 74.2804 47.024V57.392H76.8724C79.6244 57.392 81.5764 56.704 82.7284 55.328C83.3364 54.592 83.7524 53.488 83.9764 52.016H85.2724V64.112H83.9764C83.4644 60.464 81.0964 58.64 76.8724 58.64H74.2804V69.488C74.2804 70.864 74.6804 71.776 75.4804 72.224C76.0564 72.544 77.1764 72.736 78.8404 72.8V74H65.9284V72.8C68.6804 72.8 70.0564 71.92 70.0564 70.16V47.12C70.0564 45.872 69.6244 45.024 68.7604 44.576C68.2164 44.288 67.2724 44.112 65.9284 44.048V42.848H89.5924L92.6644 50.384ZM106.02 72.272C106.02 72.944 105.748 73.52 105.204 74C104.692 74.448 104.052 74.672 103.284 74.672C102.548 74.672 101.924 74.432 101.412 73.952C100.9 73.504 100.644 72.944 100.644 72.272C100.644 71.6 100.9 71.024 101.412 70.544C101.924 70.096 102.548 69.872 103.284 69.872C104.052 69.872 104.708 70.112 105.252 70.592C105.764 71.072 106.02 71.632 106.02 72.272Z" fill="black"/>
<circle cx="59" cy="59" r="58" stroke="black" stroke-width="2"/>
</svg>
