<?xml version="1.0" encoding="utf-8"?>
<!-- Generator: Adobe Illustrator 26.1.0, SVG Export Plug-In . SVG Version: 6.00 Build 0)  -->
<svg version="1.1" id="Lag_1" xmlns="http://www.w3.org/2000/svg" xmlns:xlink="http://www.w3.org/1999/xlink" x="0px" y="0px"
	 viewBox="0 0 766 206.8" style="enable-background:new 0 0 766 206.8;" xml:space="preserve">
<style type="text/css">
	.st0{fill:none;stroke:#000000;stroke-width:2;}
</style>
<path d="M291.8,117.6l-3,7.9H263v-1.2c1.7,0,2.8-0.2,3.4-0.5c0.8-0.5,1.2-1.6,1.2-3.3V98.4c0-1.2-0.5-2.1-1.4-2.4
	c-0.6-0.2-1.6-0.3-3.1-0.3v-1.2h25.2l3,7.5l-1.2,0.4c-2.3-2.7-4.2-4.4-5.7-5.2c-1.8-1-4.3-1.4-7.4-1.4c-1.6,0-2.7,0.1-3.4,0.3
	c-1.1,0.4-1.7,1.3-1.7,2.6v10.4h3.1c2.7,0,4.6-0.5,5.8-1.6c0.8-0.8,1.3-2,1.6-3.8h1.3v12h-1.3c-0.3-3.6-2.8-5.4-7.3-5.4h-3.1v11.7
	c0,1.7,1.4,2.5,4.3,2.5c3.3,0,5.8-0.4,7.3-1.1c2-0.9,4.4-2.9,7.2-6L291.8,117.6z M337.5,125.5h-12.9v-1.2c1.5,0,2.5-0.2,3.1-0.5
	c0.9-0.4,1.3-1.3,1.3-2.7V95.6H329l-11.8,30.2h-1.2l-11.8-30.3H304v24.6c0,1.8,0.5,3,1.6,3.6c0.6,0.4,1.5,0.6,2.8,0.6v1.2h-10.4
	v-1.2c2.8-0.1,4.2-1.5,4.2-4.1V98.8c0-1.4-0.4-2.3-1.3-2.8c-0.5-0.3-1.5-0.4-2.9-0.4v-1.2h9.8l9.8,25.3h0.1l9.8-25.3h9.8v1.2
	c-1.4,0-2.4,0.2-3,0.4c-0.8,0.4-1.2,1.2-1.2,2.4v22.9c0,1.2,0.5,2.1,1.5,2.5c0.6,0.3,1.5,0.4,2.7,0.4V125.5z M357.2,125.5h-13.3
	v-1.2h1.3c2.1,0,3.2-1.1,3.2-3.3V98.4c0-1.2-0.5-2.1-1.5-2.4c-0.6-0.2-1.6-0.3-3-0.3v-1.2h13.3v1.2c-1.7,0-2.8,0.2-3.4,0.6
	c-0.8,0.4-1.2,1.4-1.2,2.8v22.6c0,1.2,0.5,2.1,1.5,2.5c0.6,0.2,1.6,0.3,3.1,0.3V125.5z M390.5,117.6l-3,7.9h-23.8v-1.2
	c1.5,0,2.6-0.1,3.2-0.4c1-0.4,1.4-1.3,1.4-2.7V98.4c0-1.9-1.1-2.8-3.4-2.8h-1.2v-1.2h13.6v1.2c-1.8,0-2.9,0.2-3.6,0.5
	c-0.8,0.4-1.2,1.4-1.2,2.7v22.6c0,1.1,0.3,1.8,1,2.3s1.6,0.6,3,0.6c2.9,0,5.4-0.7,7.5-2.1c1.5-1,3.2-2.6,5.2-5L390.5,117.6z
	 M410.3,125.5h-13.3v-1.2h1.3c2.1,0,3.2-1.1,3.2-3.3V98.4c0-1.2-0.5-2.1-1.5-2.4c-0.6-0.2-1.6-0.3-3-0.3v-1.2h13.3v1.2
	c-1.7,0-2.8,0.2-3.4,0.6c-0.8,0.4-1.2,1.4-1.2,2.8v22.6c0,1.2,0.5,2.1,1.5,2.5c0.6,0.2,1.6,0.3,3.1,0.3V125.5z M445.6,117.6l-3,7.9
	h-25.8v-1.2c1.7,0,2.8-0.2,3.4-0.5c0.8-0.5,1.2-1.6,1.2-3.3V98.4c0-1.2-0.5-2.1-1.4-2.4c-0.6-0.2-1.6-0.3-3.1-0.3v-1.2H442l3,7.5
	l-1.2,0.4c-2.3-2.7-4.2-4.4-5.7-5.2c-1.8-1-4.3-1.4-7.4-1.4c-1.6,0-2.7,0.1-3.4,0.3c-1.1,0.4-1.7,1.3-1.7,2.6v10.4h3.1
	c2.7,0,4.6-0.5,5.8-1.6c0.8-0.8,1.3-2,1.6-3.8h1.3v12H436c-0.3-3.6-2.8-5.4-7.3-5.4h-3.1v11.7c0,1.7,1.4,2.5,4.3,2.5
	c3.3,0,5.8-0.4,7.3-1.1c2-0.9,4.4-2.9,7.2-6L445.6,117.6z M500,101.9l-1.2,0.4c-2.3-2.7-4.2-4.4-5.7-5.3c-1.8-1-4.1-1.5-7-1.5
	c-1.6,0-2.7,0.2-3.3,0.5c-0.8,0.4-1.2,1.2-1.2,2.5v10.4h2.6c2.8,0,4.7-0.7,5.9-2.1c0.6-0.7,1-1.8,1.2-3.3h1.3v12.1h-1.3
	c-0.5-3.6-2.9-5.5-7.1-5.5h-2.6V121c0,1.4,0.4,2.3,1.2,2.7c0.6,0.3,1.7,0.5,3.4,0.6v1.2h-12.9v-1.2c2.8,0,4.1-0.9,4.1-2.6v-23
	c0-1.2-0.4-2.1-1.3-2.5c-0.5-0.3-1.5-0.5-2.8-0.5v-1.2H497L500,101.9z M519.9,125.5h-13.3v-1.2h1.3c2.1,0,3.2-1.1,3.2-3.3V98.4
	c0-1.2-0.5-2.1-1.5-2.4c-0.6-0.2-1.6-0.3-3-0.3v-1.2h13.3v1.2c-1.7,0-2.8,0.2-3.4,0.6c-0.8,0.4-1.2,1.4-1.2,2.8v22.6
	c0,1.2,0.5,2.1,1.5,2.5c0.6,0.2,1.6,0.3,3.1,0.3V125.5z M550.2,116.9c0,2.7-1,5-3,6.8c-2,1.8-4.4,2.7-7.2,2.7c-1.3,0-2.8-0.3-4.5-1
	c-1-0.4-1.7-0.6-2.4-0.6c-0.6,0-1.7,0.4-3.5,1.3l-3.3-8l1.2-0.5c4.7,4.9,8.9,7.3,12.6,7.3c1.9,0,3.5-0.6,4.8-1.9
	c1.4-1.2,2.1-2.7,2.1-4.5c0-2.1-1-3.8-2.9-4.9c-1.1-0.7-3-1.4-5.6-2c-3.7-0.9-6.3-1.8-7.7-2.8c-2.4-1.5-3.6-3.8-3.6-6.8
	c0-2.6,1.1-4.8,3.2-6.4c1.8-1.4,3.7-2.1,5.8-2.1c0.7,0,1.8,0.1,3.2,0.4s2.4,0.4,3.1,0.4c0.9,0,1.9-0.2,2.8-0.6l3.1,7.5l-1.2,0.5
	c-3.3-4.6-6.9-6.9-10.8-6.9c-1.9,0-3.4,0.6-4.6,1.7c-1.2,1.1-1.8,2.4-1.8,3.9c0,1.9,0.9,3.4,2.7,4.5c1.2,0.7,3.4,1.5,6.4,2.2
	c3,0.7,5.3,1.5,6.8,2.4C548.9,111.4,550.2,113.8,550.2,116.9z M583.3,117.2c-3,6.1-7.2,9.2-12.6,9.2c-3.9,0-7.2-1.5-9.7-4.4
	c-2.6-2.9-3.8-6.5-3.8-10.9c0-4.7,1.2-8.7,3.7-12.1c2.7-3.6,6.1-5.5,10.3-5.5c0.7,0,1.5,0.1,2.3,0.3c2,0.5,3.2,0.7,3.4,0.7
	c0.6,0,1.5-0.3,2.6-0.8l3.1,7.8l-1.2,0.4c-1.7-2-3.2-3.6-4.4-4.5c-2.1-1.7-4.3-2.5-6.4-2.5c-2.9,0-5.2,1.4-6.9,4.3
	c-1.4,2.5-2.1,5.4-2.1,8.9c0,4,0.8,7.4,2.4,10.1c2,3.4,4.8,5.1,8.5,5.1c2.4,0,4.5-0.8,6.3-2.4c1.1-0.9,2.2-2.4,3.4-4.3L583.3,117.2z
	 M621.2,125.5h-12.8v-1.2c1.3,0,2.3-0.1,2.8-0.4c1-0.4,1.5-1.2,1.5-2.5v-11.1h-14.9v11.4c0,1.1,0.5,1.8,1.4,2.2
	c0.5,0.2,1.5,0.4,2.8,0.4v1.2h-12.7v-1.2c2.8,0,4.2-1,4.2-2.9V98.5c0-2-1.1-2.9-3.2-2.9h-1.1v-1.2h12.7v1.2c-1.3,0-2.3,0.2-2.9,0.5
	c-0.9,0.4-1.3,1.3-1.3,2.4v10.3h14.9V98.7c0-1.3-0.5-2.2-1.4-2.7c-0.6-0.3-1.6-0.4-2.9-0.4v-1.2h12.8v1.2c-1.3,0-2.3,0.2-2.9,0.5
	c-0.9,0.4-1.3,1.3-1.3,2.4v22.9c0,1.2,0.5,2,1.4,2.4c0.5,0.3,1.5,0.4,2.8,0.4V125.5z M656.1,117.6l-3,7.9h-25.8v-1.2
	c1.7,0,2.8-0.2,3.4-0.5c0.8-0.5,1.2-1.6,1.2-3.3V98.4c0-1.2-0.5-2.1-1.4-2.4c-0.6-0.2-1.6-0.3-3.1-0.3v-1.2h25.2l3,7.5l-1.2,0.4
	c-2.3-2.7-4.2-4.4-5.7-5.2c-1.8-1-4.3-1.4-7.4-1.4c-1.6,0-2.7,0.1-3.4,0.3c-1.1,0.4-1.7,1.3-1.7,2.6v10.4h3.1c2.7,0,4.6-0.5,5.8-1.6
	c0.8-0.8,1.3-2,1.6-3.8h1.3v12h-1.3c-0.3-3.6-2.8-5.4-7.3-5.4H636v11.7c0,1.7,1.4,2.5,4.3,2.5c3.3,0,5.8-0.4,7.3-1.1
	c2-0.9,4.4-2.9,7.2-6L656.1,117.6z M691.8,125.5h-8.1l-9.2-15.3H671v11.4c0,1.2,0.5,1.9,1.5,2.3c0.5,0.2,1.4,0.4,2.7,0.4v1.2h-12.6
	v-1.2c2.8-0.1,4.2-1.1,4.2-2.9V98.8c0-1.4-0.4-2.3-1.3-2.8c-0.5-0.3-1.5-0.4-2.9-0.4v-1.2h14.5c2.7,0,5,0.5,7,1.4
	c2.9,1.3,4.3,3.5,4.3,6.5c0,4.1-3.1,6.7-9.3,7.7l6.9,11.4c0.7,1.2,1.6,2,2.7,2.4c0.7,0.3,1.7,0.4,3.2,0.5V125.5z M683.4,102.1
	c0-4.3-2.7-6.5-8.1-6.5c-1.4,0-2.4,0.1-3,0.4c-0.9,0.4-1.3,1.2-1.3,2.4v10.6h2.5c3.4,0,5.9-0.5,7.3-1.4
	C682.6,106.6,683.4,104.7,683.4,102.1z"/>
<path d="M83.4,119.8l-4.7,12.4H38.2v-1.8c2.7-0.1,4.4-0.3,5.3-0.8c1.3-0.8,1.9-2.5,1.9-5.1V89.6c0-2-0.8-3.2-2.3-3.8
	c-0.9-0.4-2.5-0.5-4.9-0.5v-2h39.6L82.5,95l-2,0.6c-3.6-4.2-6.6-6.9-9-8.2c-2.8-1.5-6.7-2.3-11.7-2.3c-2.5,0-4.3,0.2-5.3,0.5
	c-1.8,0.7-2.6,2-2.6,4.1v16.3h4.8c4.2,0,7.2-0.9,9-2.6c1.2-1.2,2-3.2,2.5-6h2v18.9h-2c-0.5-5.7-4.3-8.5-11.5-8.5H52v18.3
	c0,2.7,2.3,4,6.8,4c5.2,0,9.1-0.6,11.5-1.7c3.2-1.4,6.9-4.5,11.3-9.5L83.4,119.8z M105,129.5c0,1.1-0.4,2-1.3,2.7
	c-0.8,0.7-1.8,1.1-3,1.1c-1.2,0-2.1-0.4-2.9-1.1c-0.8-0.7-1.2-1.6-1.2-2.6c0-1.1,0.4-2,1.2-2.7c0.8-0.7,1.8-1.1,2.9-1.1
	c1.2,0,2.2,0.4,3.1,1.1C104.6,127.6,105,128.5,105,129.5z M159.5,95.1l-1.9,0.7c-3.6-4.2-6.6-6.9-8.9-8.3c-2.8-1.6-6.4-2.3-11-2.3
	c-2.5,0-4.2,0.3-5.1,0.8c-1.3,0.7-2,2-2,3.9v16.3h4.1c4.3,0,7.4-1.1,9.2-3.2c1-1.2,1.6-2.9,2-5.2h2v19h-2c-0.8-5.7-4.5-8.6-11.2-8.6
	h-4.1v17c0,2.2,0.6,3.6,1.9,4.3c0.9,0.5,2.7,0.8,5.3,0.9v1.9h-20.3v-1.9c4.3,0,6.5-1.4,6.5-4.1V90c0-2-0.7-3.3-2-4
	c-0.9-0.5-2.3-0.7-4.4-0.8v-1.9h37.1L159.5,95.1z M180.4,129.5c0,1.1-0.4,2-1.3,2.7c-0.8,0.7-1.8,1.1-3,1.1c-1.2,0-2.1-0.4-2.9-1.1
	c-0.8-0.7-1.2-1.6-1.2-2.6c0-1.1,0.4-2,1.2-2.7c0.8-0.7,1.8-1.1,2.9-1.1c1.2,0,2.2,0.4,3.1,1.1C180,127.6,180.4,128.5,180.4,129.5z"
	/>
<circle class="st0" cx="105.4" cy="110" r="90.3"/>
</svg>
